<?xml version="1.0" encoding="utf-8"?>
<!-- Generator: Adobe Illustrator 23.0.6, SVG Export Plug-In . SVG Version: 6.00 Build 0)  -->
<svg version="1.1" id="spedxchange" xmlns="http://www.w3.org/2000/svg" xmlns:xlink="http://www.w3.org/1999/xlink" x="0px"
	 y="0px" viewBox="0 0 55 11" style="enable-background:new 0 0 55 11;" xml:space="preserve">
<style type="text/css">
	.st0{fill:#671C8E;}
	.st1{fill:#006646;}
	.st2{fill:#FFFFFF;}
</style>
<polygon id="purple" class="st0" points="16.2583,11 0,11 0,0 19.5208,0 21.7928,5.5 "/>
<polygon id="green" class="st1" points="55,11 16.2583,11 21.7928,5.5 19.5208,0 55,0 "/>
<g id="xchange">
	<g id="e">
		<polygon class="st2" points="48.4832,7.7234 49.0927,5.6682 51.1331,5.6682 51.2719,5.2001 49.2315,5.2001 49.8019,3.2766 
			52.109,3.2766 52.25,2.8012 48.6026,2.8012 47.002,8.1988 50.6628,8.1988 50.8038,7.7234 		"/>
	</g>
	<g id="g">
		<path class="st2" d="M45.1174,5.6682h0.7802L45.286,7.7307c-0.1155,0.0073-0.2444,0.0146-0.3644,0.0146
			c-1.0336,0-1.2595-0.4973-0.7412-2.2454c0.5183-1.748,0.9614-2.2527,2.2817-2.2527c0.3801,0,0.7982,0.0293,1.2431,0.0804
			l0.128-0.4315C47.3658,2.8085,46.8096,2.75,46.3095,2.75c-1.647,0-2.9435,0.8191-3.5161,2.75
			c-0.6094,2.0552,0.2248,2.75,1.8985,2.75c0.6068,0,1.2023-0.0293,1.7573-0.1243l0.8675-2.9255h-2.0605L45.1174,5.6682z"/>
	</g>
	<g id="n">
		<polygon class="st2" points="41.7073,6.1436 39.9045,2.8012 39.091,2.8012 37.4904,8.1988 37.9905,8.1988 39.0445,4.6443 
			40.8645,8.1988 41.598,8.1988 43.1986,2.8012 42.6985,2.8012 		"/>
	</g>
	<g id="a">
		<path class="st2" d="M35.8159,2.8012l-3.3676,5.3976h0.4935l0.8984-1.4554h1.9338l0.0552,1.4554h1.387l-0.2198-5.3976H35.8159z
			 M34.1323,6.2753l1.5464-2.494l0.0806,2.494H34.1323z"/>
	</g>
	<g id="h">
		<polygon class="st2" points="31.6302,5.2001 29.8432,5.2001 30.5545,2.8012 29.2143,2.8012 27.6137,8.1988 28.954,8.1988 
			29.7044,5.6682 31.4914,5.6682 30.7411,8.1988 32.0813,8.1988 33.6819,2.8012 32.3416,2.8012 		"/>
	</g>
	<g id="c">
		<path class="st2" d="M27.6406,3.2473c0.2934,0,0.6203,0.0219,0.9497,0.0804l0.128-0.4315C28.3308,2.8085,27.9014,2.75,27.488,2.75
			c-0.6579,0-1.2603,0.1289-1.7829,0.4276L23.369,5.5l0.9599,2.3252c0.3465,0.297,0.8726,0.4248,1.5281,0.4248
			c0.4201,0,0.8887-0.0512,1.317-0.1463l0.128-0.4315c-0.3619,0.0512-0.6973,0.0804-0.9974,0.0804
			c-1.0336,0-1.3989-0.4096-0.8502-2.2599C25.9988,3.6569,26.607,3.2473,27.6406,3.2473z"/>
	</g>
	<g id="x-lower">
		<polygon class="st2" points="20.7492,8.1987 22.2119,6.7446 22.8121,8.1987 		"/>
	</g>
	<g id="x-upper">
		<polygon class="st2" points="22.3513,2.7959 22.9516,4.25 24.4142,2.7959 		"/>
	</g>
</g>
<g id="sped">
	<g id="D">
		<path class="st2" d="M21.7928,5.5l-0.9557-2.3152c-0.2881-0.2502-0.7173-0.3837-1.2991-0.3837h-2.1205L15.817,8.1988h2.1205
			c0.5805,0,1.0884-0.1323,1.5244-0.3814L21.7928,5.5z M17.8584,7.7234h-0.5935l1.3186-4.4468h0.5935
			c0.7802,0,1.0872,0.3364,0.5276,2.2234C19.1472,7.3797,18.6386,7.7234,17.8584,7.7234z"/>
	</g>
	<g id="E">
		<path class="st2" d="M13.3088,2.8012h3.6475l-0.141,0.4754h-2.3072l-0.5704,1.9235h2.0405l-0.1388,0.4681h-2.0405l-0.6094,2.0552
			H15.51l-0.141,0.4754h-3.6608L13.3088,2.8012z"/>
	</g>
	<g id="P">
		<path class="st2" d="M8.7134,2.8012h2.3405c1.0135,0,1.7016,0.4681,1.3329,1.7115c-0.3383,1.141-1.247,1.7992-2.3539,1.7992
			H9.0127l-0.5595,1.887H7.1129L8.7134,2.8012z M9.8317,5.8437c0.5668,0,0.9001-0.3145,1.1929-1.3018
			c0.2885-0.9728,0.1351-1.2653-0.445-1.2653H9.9127L9.1515,5.8437H9.8317z"/>
	</g>
	<g id="S">
		<path class="st2" d="M2.75,8.0891l0.128-0.4315c0.5161,0.0585,0.9787,0.0951,1.4455,0.0951c0.8802,0,1.332-0.2194,1.499-0.7826
			C5.907,6.6848,5.8569,6.5166,5.7004,6.3923C5.546,6.2607,5.2787,6.1729,4.8842,6.0412c-0.43-0.1463-0.7624-0.3072-0.9399-0.5632
			C3.7647,5.2294,3.7332,4.8857,3.8807,4.3883C4.2776,3.0499,5.3734,2.75,6.4737,2.75c0.4401,0,0.9984,0.0512,1.4481,0.1536
			L7.7938,3.3351C7.3844,3.2766,6.9463,3.2473,6.5929,3.2473c-0.7268,0-1.1923,0.1755-1.3571,0.7314
			C5.1512,4.264,5.1969,4.4249,5.3355,4.5419C5.4854,4.6662,5.7394,4.754,6.087,4.8637c0.4724,0.1609,0.8225,0.3072,1.0176,0.5485
			c0.1975,0.256,0.2311,0.5924,0.0836,1.0898C6.7848,7.8624,5.5296,8.25,4.4494,8.25C3.8892,8.25,3.2797,8.1915,2.75,8.0891z"/>
	</g>
</g>
</svg>
